<svg xmlns="http://www.w3.org/2000/svg" xml:space="preserve" id="Womandoingshoppingduringcovid19" x="0" y="0" enable-background="new 0 0 300 300" version="1.1" viewBox="0 0 300 300">
  <path fill="#e5efc9" d="M281.2,230c3.2-11.6,0.9-28.3-2.2-34.4c-6.3-12.3-18.7-14.5-29.3-23.3c-20.1-16.7-18-54.2-21.4-66.3   c-11.9-42.1-63.8-36.8-83-9.3c-3.2,4.6-13.5,20.4-32.7,26.3c-21.8,6.6-41.1-2-61.9,9.2c-6.3,3.4-12.9,8.8-17.6,14.1   c-6.7,7.5-11.6,16.5-14.2,26.2c-5.2,19.4-1.2,40.7,9.6,57.5H281.2z" class="colorefdec9 svgShape"></path>
  <polygon fill="#6162a9" points="203 77.7 203 99.9 203.4 99.9 203.4 77.9" class="color7761a9 svgShape"></polygon>
  <polygon fill="#6162a9" points="172.4 77.6 172.4 99.9 172.8 99.9 172.8 77.5" class="color7761a9 svgShape"></polygon>
  <rect width="40.8" height="12.4" x="167.5" y="91.2" fill="#aebc85" transform="rotate(-180 187.9 97.445)" class="colora485bc svgShape"></rect>
  <rect width=".9" height="16.2" x="235.6" y="139.3" fill="#2c2c84" class="color291f58 svgShape"></rect>
  <rect width="37.4" height="23.4" x="217.2" y="122.1" fill="#4345d2" class="colord2434a svgShape"></rect>
  <rect width="33.3" height="19.5" x="219.3" y="124" fill="#ffffff" class="colorffffff svgShape"></rect>
  <g fill="#000000" class="color000000 svgShape">
    <path fill="#4345d2" d="M227.3 134.9c0 .3-.1.5-.2.7-.1.2-.3.4-.4.6-.2.2-.4.3-.7.4-.3.1-.6.1-.9.1-.3 0-.6 0-1-.1s-.6-.2-.9-.3l.3-1.1c.2.1.4.2.7.3s.5.1.8.1c.2 0 .4 0 .6-.1.2-.1.2-.2.2-.4 0-.1-.1-.3-.2-.4-.1-.1-.4-.2-.8-.4-.6-.2-1-.5-1.3-.7-.3-.3-.4-.6-.4-1.1 0-.6.2-1 .6-1.3.4-.3.9-.4 1.5-.4.3 0 .7 0 1 .1.3.1.6.2.8.3l-.2 1.1c-.2-.1-.4-.2-.7-.2-.2-.1-.5-.1-.8-.1-.2 0-.4 0-.5.1-.1.1-.2.2-.2.4 0 .1 0 .2 0 .2 0 .1.1.1.1.2.1.1.1.1.3.2.1.1.3.1.4.2.2.1.5.2.7.3.2.1.4.2.6.4.2.1.3.3.4.5C227.3 134.5 227.3 134.7 227.3 134.9zM233.7 135.6h-2.2l-.4 1.1h-1.5l2.2-5.9h1.6l2.2 5.9h-1.5L233.7 135.6zM231.8 134.4h1.5l-.7-2.5L231.8 134.4zM239.6 130.8v4.7h2.2v1.1h-3.6v-5.9H239.6zM244.4 130.8h3.7v1.1h-2.2v1.2h2.1v1.1h-2.1v1.3h2.2v1.1h-3.7V130.8z" class="colord2434a svgShape"></path>
  </g>
  <g fill="#000000" class="color000000 svgShape">
    <path fill="#c9f44f" d="M243.1,174.7h-13.5c-0.9,0-1.6-0.7-1.6-1.6v-18.6c0-0.9,0.7-1.6,1.6-1.6h13.5V174.7z" class="colorf4b44f svgShape"></path>
    <path fill="#acd43a" d="M244.8,152.8h-1.7v21.8h2.8v-21C245.9,153.2,245.4,152.8,244.8,152.8z" class="colord4973a svgShape"></path>
    <path fill="#ffffff" d="M239.9,159.7l-8.6,0.5c-0.2,0-0.4-0.2-0.4-0.4v-4.4c0-0.2,0.2-0.4,0.4-0.4l8.6,0c0.2,0,0.4,0.2,0.4,0.4v3.9      C240.2,159.5,240.1,159.7,239.9,159.7z" class="colorffffff svgShape"></path>
    <g fill="#000000" class="color000000 svgShape">
      <path fill="#c9f44f" d="M251.3,192.6h-13.5c-0.9,0-1.6-0.7-1.6-1.6v-18.6c0-0.9,0.7-1.6,1.6-1.6h13.5V192.6z" class="colorf4b44f svgShape"></path>
      <path fill="#acd43a" d="M253,170.7h-1.7v21.8h2.8v-21C254.1,171.1,253.6,170.7,253,170.7z" class="colord4973a svgShape"></path>
      <path fill="#ffffff" d="M248.1,177.6l-8.6,0.5c-0.2,0-0.4-0.2-0.4-0.4v-4.4c0-0.2,0.2-0.4,0.4-0.4l8.6,0c0.2,0,0.4,0.2,0.4,0.4        v3.9C248.4,177.4,248.3,177.6,248.1,177.6z" class="colorffffff svgShape"></path>
      <g fill="#000000" class="color000000 svgShape">
        <path fill="#c9f44f" d="M232.6,192.6H219c-0.9,0-1.6-0.7-1.6-1.6v-18.6c0-0.9,0.7-1.6,1.6-1.6h13.5V192.6z" class="colorf4b44f svgShape"></path>
        <path fill="#acd43a" d="M234.3,170.7h-1.7v21.8h2.8v-21C235.3,171.1,234.9,170.7,234.3,170.7z" class="colord4973a svgShape"></path>
        <path fill="#ffffff" d="M229.4,177.6l-8.6,0.5c-0.2,0-0.4-0.2-0.4-0.4v-4.4c0-0.2,0.2-0.4,0.4-0.4l8.6,0c0.2,0,0.4,0.2,0.4,0.4        v3.9C229.7,177.4,229.5,177.6,229.4,177.6z" class="colorffffff svgShape"></path>
      </g>
      <g fill="#000000" class="color000000 svgShape">
        <path fill="#c9f44f" d="M262,212.2h-13.5c-0.9,0-1.6-0.7-1.6-1.6V192c0-0.9,0.7-1.6,1.6-1.6H262V212.2z" class="colorf4b44f svgShape"></path>
        <path fill="#acd43a" d="M263.7,190.3H262v21.8h2.8v-21C264.8,190.7,264.3,190.3,263.7,190.3z" class="colord4973a svgShape"></path>
        <path fill="#ffffff" d="M258.8,197.2l-8.6,0.5c-0.2,0-0.4-0.2-0.4-0.4v-4.4c0-0.2,0.2-0.4,0.4-0.4l8.6,0c0.2,0,0.4,0.2,0.4,0.4        v3.9C259.2,197,259,197.2,258.8,197.2z" class="colorffffff svgShape"></path>
        <g fill="#000000" class="color000000 svgShape">
          <path fill="#c9f44f" d="M243.3,212.2h-13.5c-0.9,0-1.6-0.7-1.6-1.6V192c0-0.9,0.7-1.6,1.6-1.6h13.5V212.2z" class="colorf4b44f svgShape"></path>
          <path fill="#acd43a" d="M245,190.3h-1.7v21.8h2.8v-21C246.1,190.7,245.6,190.3,245,190.3z" class="colord4973a svgShape"></path>
          <path fill="#ffffff" d="M240.1,197.2l-8.6,0.5c-0.2,0-0.4-0.2-0.4-0.4v-4.4c0-0.2,0.2-0.4,0.4-0.4l8.6,0c0.2,0,0.4,0.2,0.4,0.4        v3.9C240.4,197,240.3,197.2,240.1,197.2z" class="colorffffff svgShape"></path>
        </g>
        <g fill="#000000" class="color000000 svgShape">
          <path fill="#c9f44f" d="M224.8,212.2h-13.5c-0.9,0-1.6-0.7-1.6-1.6V192c0-0.9,0.7-1.6,1.6-1.6h13.5V212.2z" class="colorf4b44f svgShape"></path>
          <path fill="#acd43a" d="M226.5,190.3h-1.7v21.8h2.8v-21C227.5,190.7,227,190.3,226.5,190.3z" class="colord4973a svgShape"></path>
          <path fill="#ffffff" d="M221.5,197.2l-8.6,0.5c-0.2,0-0.4-0.2-0.4-0.4v-4.4c0-0.2,0.2-0.4,0.4-0.4l8.6,0c0.2,0,0.4,0.2,0.4,0.4        v3.9C221.9,197,221.7,197.2,221.5,197.2z" class="colorffffff svgShape"></path>
        </g>
      </g>
      <g fill="#000000" class="color000000 svgShape">
        <path fill="#c9f44f" d="M269.4,229.8h-13.5c-0.9,0-1.6-0.7-1.6-1.6v-18.6c0-0.9,0.7-1.6,1.6-1.6h13.5V229.8z" class="colorf4b44f svgShape"></path>
        <path fill="#acd43a" d="M271.1,208h-1.7v21.8h2.8v-21C272.2,208.4,271.7,208,271.1,208z" class="colord4973a svgShape"></path>
        <path fill="#ffffff" d="M266.2,214.8l-8.6,0.5c-0.2,0-0.4-0.2-0.4-0.4v-4.4c0-0.2,0.2-0.4,0.4-0.4l8.6,0c0.2,0,0.4,0.2,0.4,0.4        v3.9C266.6,214.7,266.4,214.8,266.2,214.8z" class="colorffffff svgShape"></path>
        <path fill="#c9f44f" d="M250.7,229.8h-13.5c-0.9,0-1.6-0.7-1.6-1.6v-18.6c0-0.9,0.7-1.6,1.6-1.6h13.5V229.8z" class="colorf4b44f svgShape"></path>
        <path fill="#acd43a" d="M252.4,208h-1.7v21.8h2.8v-21C253.4,208.4,253,208,252.4,208z" class="colord4973a svgShape"></path>
        <path fill="#ffffff" d="M247.5,214.8l-8.6,0.5c-0.2,0-0.4-0.2-0.4-0.4v-4.4c0-0.2,0.2-0.4,0.4-0.4l8.6,0c0.2,0,0.4,0.2,0.4,0.4        v3.9C247.8,214.7,247.6,214.8,247.5,214.8z" class="colorffffff svgShape"></path>
        <g fill="#000000" class="color000000 svgShape">
          <path fill="#c9f44f" d="M231.9,229.8h-13.5c-0.9,0-1.6-0.7-1.6-1.6v-18.6c0-0.9,0.7-1.6,1.6-1.6h13.5V229.8z" class="colorf4b44f svgShape"></path>
          <path fill="#acd43a" d="M233.6,208h-1.7v21.8h2.8v-21C234.7,208.4,234.2,208,233.6,208z" class="colord4973a svgShape"></path>
          <path fill="#ffffff" d="M228.7,214.8l-8.6,0.5c-0.2,0-0.4-0.2-0.4-0.4v-4.4c0-0.2,0.2-0.4,0.4-0.4l8.6,0c0.2,0,0.4,0.2,0.4,0.4        v3.9C229,214.7,228.9,214.8,228.7,214.8z" class="colorffffff svgShape"></path>
        </g>
        <g fill="#000000" class="color000000 svgShape">
          <path fill="#c9f44f" d="M213.4,229.8h-13.5c-0.9,0-1.6-0.7-1.6-1.6v-18.6c0-0.9,0.7-1.6,1.6-1.6h13.5V229.8z" class="colorf4b44f svgShape"></path>
          <path fill="#acd43a" d="M215.1,208h-1.7v21.8h2.8v-21C216.2,208.4,215.7,208,215.1,208z" class="colord4973a svgShape"></path>
          <path fill="#ffffff" d="M210.2,214.8l-8.6,0.5c-0.2,0-0.4-0.2-0.4-0.4v-4.4c0-0.2,0.2-0.4,0.4-0.4l8.6,0c0.2,0,0.4,0.2,0.4,0.4        v3.9C210.5,214.7,210.4,214.8,210.2,214.8z" class="colorffffff svgShape"></path>
        </g>
      </g>
    </g>
  </g>
  <g fill="#000000" class="color000000 svgShape">
    <path fill="#444574" d="M176.9,137.7c-5.5-0.7-2.6-9.5-5.8-11.7s-7.6-2.2-6.5-5.3s-2-10.5-4.1-12.1c-4.3-3.2-10.4-1.9-12.2-1          c-1,0.5-2.4,1.9-3.5,3.7c-0.6,11.9-6.1,23.8-2.2,35.6c0,0,0,0.1,0,0.1c2,5.9,7.4,9.9,13.5,10.3c13,0.8,25,0.3,27.6-2.2          C190.3,149.2,182.5,138.4,176.9,137.7z" class="color74444a svgShape"></path>
    <path fill="none" stroke="#54558c" stroke-linecap="round" stroke-linejoin="round" stroke-miterlimit="10" stroke-width=".323" d="M182.7,151.9c-10.2-2.9-9.4-15.7-12.6-16c-3.6-0.4-5.2-2.9-6.1-5.6" class="colorStroke8c545b svgStroke"></path>
    <path fill="#def3a2" d="M159.4,120.8c-1.6,0-2.6,1-2.6,1s-4.8-0.9-7-4.9c-2.2-4-1.7-7.5-1.7-7.5s-4,1.6-6,4.8           c-0.2,0.3-0.4,0.6-0.6,0.9c-2.6,3.5-3.1,8.3-0.9,12.2c0.2,0.4,0.5,0.8,0.7,1.1c2.4,3.1,5.2,3.9,5.2,3.9l-1.8,12.4l13.9,1.6           l-1-19.3c0,0,3.5,0.5,4.3-2C162.6,122.5,161,120.8,159.4,120.8z" class="colorf3aca2 svgShape"></path>
    <path fill="#bcd084" d="M160.2,124.1c0.3-1.3-1-2.2-1.1-2.3c0,0-0.1,0-0.1,0c0,0,0,0.1,0,0.1c0,0,1.3,0.9,1,2.1          c0,0.1-0.1,0.3-0.1,0.4c-0.3,0-1.3-0.1-1.5-0.4c-0.3-0.4-0.1-0.7-0.1-0.7c0,0,0-0.1,0-0.1c0,0-0.1,0-0.1,0          c0,0-0.2,0.4,0.1,0.9c0.1,0.1,0.2,0.2,0.3,0.2c0.4,0.2,1.1,0.3,1.3,0.3c-0.3,0.8-0.8,1.4-0.8,1.4c0,0,0,0.1,0,0.1          c0,0,0,0,0,0c0,0,0.1,0,0.1,0C159.2,126.2,159.9,125.4,160.2,124.1z" class="colord08487 svgShape"></path>
    <g fill="#000000" class="color000000 svgShape">
      <path fill="#ffffff" d="M141.7,119.3c0,0,0.3,1.5,1.2,1.5c1,0,1.1-0.9,1.4-0.9c0.3,0,0-1.5-0.5-1.9        C142.5,116.9,141.7,119.3,141.7,119.3z" class="colorffffff svgShape"></path>
      <path fill="#1d1d30" d="M144.5,119.3L144.5,119.3c0.1-0.1,0.2-0.4,0.1-0.7c-0.2-0.5-0.5-1.1-1.2-1.3c-1.2-0.2-1.9,1.7-1.9,1.7        l0.2,0.2c0,0,0.7-1.3,1.4-1.5C143.9,117.6,144.5,119.3,144.5,119.3z" class="color2b1d30 svgShape"></path>
      <path fill="#1d1d30" d="M142.4,118.8c-0.1,0.9,0.2,1.7,0.6,1.8s0.9-0.7,0.9-1.6s-0.3-1.2-0.7-1.2        C142.8,117.6,142.5,117.8,142.4,118.8z" class="color2b1d30 svgShape"></path>
      <ellipse cx="143.5" cy="118.9" fill="#ffffff" rx=".5" ry=".1" transform="matrix(.08668 -.9962 .9962 .08668 12.608 251.602)" class="colorffffff svgShape"></ellipse>
    </g>
    <g fill="#000000" class="color000000 svgShape">
      <ellipse cx="145.7" cy="116.5" fill="#444574" rx=".6" ry="3.3" transform="rotate(-64.76 145.687 116.458)" class="color74444a svgShape"></ellipse>
    </g>
    <g fill="#000000" class="color000000 svgShape">
      <path fill="#dcf399" d="M139,121c0-0.2,0.2-0.2,0.4-0.2c0.5,0.1,1.6,0.4,2.5,0.5c1.3,0.2,7.1,0.4,8.1,0.4       c1.3-0.3,5.5-0.2,5.8-0.2l1,0.3c-2.4,0.1-5.3,0.2-7,0.6c-0.1,0.5-0.2,1.3-0.3,2.7c-0.1,2.3,2.2,5.3,3.2,6.5       c1-0.5,2.4-2.9,4.7-4.7l0,0.9c-2.3,1.7-3.2,3.7-4.3,4.3c0,0,0.1,0.1,0.1,0.1s0,0-1.4,1.1c-1.4,1.1-4.7,2-7.9,0.6       c-3.2-1.5-5.9-7.5-5.7-9.3C138.4,123.2,138.8,121.6,139,121z" class="color99daf3 svgShape"></path>
    </g>
    <g fill="#000000" class="color000000 svgShape">
      <path fill="none" stroke="#444574" stroke-miterlimit="10" stroke-width=".323" d="M184.8,147.4c1.9-2.9-3.5-11.1-7-11.5c-5.4-0.6-2.8-6.2-5.7-10.6c-2-3.1-7.4-2-6.4-4.8      c1-2.8-2-9.5-4.1-10.9c-1-0.7-2-1.1-3.1-1.4" class="colorStroke74444a svgStroke"></path>
    </g>
    <g fill="#000000" class="color000000 svgShape">
      <path fill="#4345d2" d="M120.7,229.9l53.9,0l-3.2-67.1c-0.3-6.4-3-12.4-7.7-16.8c-7.5-6.9-18.4-8.2-26.6,0.3l0,0     c-4.2,4.3-8.5,8.9-9.6,14.6C125.5,171.7,120.5,230.1,120.7,229.9z" class="colord2434a svgShape"></path>
      <path fill="#d0f074" d="M167.5 219.3c0 0 1-2.7-.2-3.1-.8-.2-1.1 1.6-1.2 2.9-.1.7.2 1.4.6 1.9l0 0c.7.8 1.8 1.2 2.8.9.6-.2 1.1-.5 1.3-.9.5-1.1-.1-1.5-1-1.2-.8.3-1.5.5-1.5.5s2.1-2 2-2.6c-.2-.6-.8-.8-1.6 0C168 218.5 167.5 219.3 167.5 219.3zM146.1 221.7c0 0-2.7-1-3.1.2-.2.8 1.6 1.1 2.9 1.2.7.1 1.4-.2 1.9-.6l0 0c.8-.7 1.2-1.8.9-2.8-.2-.6-.5-1.1-.9-1.3-1.1-.5-1.5.1-1.2 1 .3.8.5 1.5.5 1.5s-2-2.1-2.6-2-.8.8 0 1.6C145.3 221.2 146.1 221.7 146.1 221.7zM155 199.3c0 0-1.8-2.3-2.7-1.4-.6.6.8 1.7 1.9 2.5.6.4 1.3.6 2 .5l0 0c1-.2 1.9-.9 2.2-2 .1-.6.2-1.2-.1-1.6-.7-1-1.3-.6-1.5.2-.2.9-.3 1.6-.3 1.6s-.7-2.9-1.3-3c-.6-.1-1.1.3-.8 1.4C154.5 198.4 155 199.3 155 199.3zM128.3 197.7c0 0-.5-2.8-1.7-2.5-.8.2-.1 1.9.5 3 .3.6.9 1.1 1.5 1.3h0c1 .3 2.1.1 2.8-.7.4-.4.7-.9.6-1.4-.2-1.2-.9-1.2-1.4-.5-.6.7-1 1.3-1 1.3s.8-2.9.3-3.3c-.5-.4-1.1-.2-1.4.9C128.4 196.8 128.3 197.7 128.3 197.7zM137.7 177.4c0 0 1-2.7-.2-3.1-.8-.2-1.1 1.6-1.2 2.9-.1.7.2 1.4.6 1.9l0 0c.7.8 1.8 1.2 2.8.9.6-.2 1.1-.5 1.3-.9.5-1.1-.1-1.5-1-1.2-.8.3-1.5.5-1.5.5s2.1-2 2-2.6-.8-.8-1.6 0C138.2 176.6 137.7 177.4 137.7 177.4zM163.8 177.4c0 0-2.9-.3-2.9.9 0 .8 1.8.6 3.1.4.7-.1 1.3-.5 1.7-1.1l0 0c.6-.9.7-2 .1-2.9-.3-.5-.7-.9-1.2-1-1.2-.2-1.4.5-.9 1.2.5.7.9 1.3.9 1.3s-2.5-1.5-3.1-1.2c-.5.3-.5 1 .5 1.5C162.8 177.1 163.8 177.4 163.8 177.4zM139.5 155c0 0 1-2.7-.2-3.1-.8-.2-1.1 1.6-1.2 2.9-.1.7.2 1.4.6 1.9l0 0c.7.8 1.8 1.2 2.8.9.6-.2 1.1-.5 1.3-.9.5-1.1-.1-1.5-1-1.2-.8.3-1.5.5-1.5.5s2.1-2 2-2.6c-.2-.6-.8-.8-1.6 0C140.1 154.1 139.5 155 139.5 155zM162 152.7c0 0-2.8.6-2.5 1.7.2.8 1.9.1 3-.5.6-.3 1.1-.9 1.3-1.6l0 0c.3-1 0-2.1-.8-2.8-.4-.4-1-.7-1.4-.6-1.2.2-1.2.9-.5 1.4.7.6 1.3 1 1.3 1s-2.9-.7-3.3-.3-.2 1.1.9 1.3C161 152.7 162 152.7 162 152.7z" class="colorf07c74 svgShape"></path>
      <path fill="#3638ae" d="M153.1,187.5c0.7-1.4-1.2-2.6-2.2-1.4c-2.5,2.9-5.2,6-7.5,8.1c-16.9,15.3-21.1,14.4-21.1,14.4     s-0.4,4.3-0.5,5.2c0,1.7-0.4,4.8-0.4,4.8s15.7-13.1,24.4-22.3C147.7,194.4,151.5,190.8,153.1,187.5z" class="colorae363c svgShape"></path>
      <path fill="#4345d2" d="M125.5,185.3c0-1.2,0-2.3,0-3.5v-5.5c0-0.1,0-0.2,0-0.3l-14.6,10.1c0,0-13.4-2.3-26.5-4.6     c0.1,5.3-0.7,10,0,14.7c4.9,3,11.2,7.3,16,10.2c7.7,4.8,17.4,4.8,25.1,0.1V185.3z" class="colord2434a svgShape"></path>
      <path fill="#d0f074" d="M98.9,195.1c0,0-0.5-2.8-1.7-2.5c-0.8,0.2-0.1,1.9,0.5,3c0.3,0.6,0.9,1.1,1.5,1.3l0,0     c1,0.3,2.1,0.1,2.8-0.7c0.4-0.4,0.7-0.9,0.6-1.4c-0.2-1.2-0.9-1.2-1.4-0.5c-0.6,0.7-1,1.3-1,1.3s0.8-2.9,0.3-3.3     c-0.5-0.4-1.1-0.2-1.4,0.9C98.9,194.1,98.9,195.1,98.9,195.1z" class="colorf07c74 svgShape"></path>
    </g>
    <path fill="none" stroke="#ffffff" stroke-linecap="round" stroke-linejoin="round" stroke-miterlimit="10" stroke-width=".646" d="M125.5,176.3l3.9-2.9c6.4-4.7,12.3-10,17.7-15.7h0" class="colorStrokeffffff svgStroke"></path>
  </g>
  <line x1="283.5" x2="22" y1="230" y2="230" fill="none" stroke="#000025" stroke-linecap="round" stroke-linejoin="round" stroke-miterlimit="10" stroke-width=".646" class="colorStroke000425 svgStroke"></line>
  <g fill="#000000" class="color000000 svgShape">
    <path fill="#bcf220" d="M63.1,232.7L41,240.3c-0.8,0.3-1.8-0.2-2.1-1l-13.2-38.1c-0.3-0.8,0.2-1.8,1-2.1l22.1-7.6L63.1,232.7z" class="colorf28e20 svgShape"></path>
    <path fill="#bbf121" d="M51.5,190.6l-2.6,0.9l14.2,41.1l4.3-1.5l-13.6-39.5C53.5,190.8,52.5,190.3,51.5,190.6z" class="colorf18221 svgShape"></path>
    <rect width="17.4" height="29" x="46.9" y="204.7" fill="#4345d2" transform="rotate(-16.929 55.634 219.182)" class="colord2434a svgShape"></rect>
    <polygon fill="#bdc2ad" points="52.9 236.7 67.5 232.2 68.2 230.5 51.5 235.6" class="colorc2b3ad svgShape"></polygon>
    <rect width="15.3" height=".8" x="52.6" y="234.4" fill="#bdc2ad" transform="rotate(-16.929 60.309 234.814)" class="colorc2b3ad svgShape"></rect>
    <polygon fill="#bdc2ad" points="43.6 206.2 58.3 201.8 59.8 202.8 43.1 207.9" class="colorc2b3ad svgShape"></polygon>
    <rect width="15.3" height="1.1" x="43.1" y="202.9" fill="#bdc2ad" transform="rotate(-16.929 50.764 203.454)" class="colorc2b3ad svgShape"></rect>
    <g fill="#000000" class="color000000 svgShape">
      <rect width="17.4" height=".4" x="50.5" y="230.8" fill="#bdc2ad" transform="rotate(-16.929 59.24 231.028)" class="colorc2b3ad svgShape"></rect>
    </g>
    <g fill="#000000" class="color000000 svgShape">
      <rect width="17.4" height=".4" x="43.3" y="207.1" fill="#bdc2ad" transform="rotate(-16.929 52.008 207.268)" class="colorc2b3ad svgShape"></rect>
    </g>
    <path fill="#00029a" d="M71.2,210.6c0,0-2.8-9.2-0.5-11.1c2.3-1.9,3.5,3.9,3.5,3.9s2.7-12.2,6.4-13c3.7-0.7-1.6,13.9-1.6,13.9     s1.1-1.8,2.8-0.6c1.7,1.2-3.1,8.7-3.1,8.7L71.2,210.6z" class="color009a7e svgShape"></path>
    <g fill="#000000" class="color000000 svgShape">
      <ellipse cx="76.9" cy="214.6" fill="#c9f44f" rx="19.8" ry="4.9" transform="rotate(-46.783 76.906 214.625)" class="colorf4b44f svgShape"></ellipse>
      <path fill="#eeeeed" d="M84.6,213.5l-1.3,0l0-1.4l-1.3,0l0-1.1l-1.2,0l0-1.1l-1.1,0l0-1l-1,0l0-1.1l-1.1,0l0-1l-1.1,0l-0.1-0.1      l-14,14.9c-1.7,1.8-1.6,4.6,0.2,6.3l1.8,1.7c1.8,1.7,4.6,1.6,6.3-0.2l14-14.9L84.6,213.5z" class="colorededee svgShape"></path>
      <ellipse cx="86.3" cy="204.6" fill="#cbf15e" rx=".5" ry="2.5" transform="rotate(-46.783 86.338 204.587)" class="colorfdc97e svgShape"></ellipse>
      <ellipse cx="82.8" cy="208.4" fill="#cbf15e" rx=".5" ry="2.5" transform="rotate(-46.783 82.76 208.396)" class="colorfdc97e svgShape"></ellipse>
    </g>
    <g fill="#000000" class="color000000 svgShape">
      <ellipse cx="66.1" cy="214.4" fill="#c9f44f" rx="4.9" ry="19.8" transform="rotate(-19.069 66.079 214.376)" class="colorf4b44f svgShape"></ellipse>
      <path fill="#ffffff" d="M68.6,207.1l-0.5,1.1l-1.2-0.6l-0.6,1.1l-1-0.5l-0.5,1l-1-0.5l-0.5,1l-0.9-0.4l-0.5,0.9l-1-0.5l-0.5,1      l-0.9-0.4l-0.5,1l-0.1,0l6.7,19.3c0.8,2.3,3.3,3.6,5.7,2.8l2.3-0.8c2.3-0.8,3.6-3.3,2.8-5.7l-6.7-19.3L68.6,207.1z" class="colorffffff svgShape"></path>
      <ellipse cx="61.6" cy="201.4" fill="#cbf15e" rx="2.5" ry=".5" transform="rotate(-19.069 61.58 201.359)" class="colorfdc97e svgShape"></ellipse>
      <ellipse cx="63.3" cy="206.3" fill="#cbf15e" rx="2.5" ry=".5" transform="rotate(-19.069 63.287 206.298)" class="colorfdc97e svgShape"></ellipse>
    </g>
    <g fill="#000000" class="color000000 svgShape">
      <path fill="#5253b0" d="M93.2,206.3l-68.7,0c-1.1,0-1.9,0.9-1.9,1.9l0,0.1c0,1.1,0.9,1.9,1.9,1.9l0.6,0l7.6,29.8       c0.3,1.2,1.4,2,2.6,2l47.3,0c1.2,0,2.3-0.8,2.6-2l7.5-29.8l0.6,0c1.1,0,1.9-0.9,1.9-1.9l0-0.1       C95.2,207.1,94.3,206.3,93.2,206.3z M36.8,232.5l-1.4,0c-0.3,0-0.6-0.2-0.6-0.5l-1.9-13c-0.1-0.4,0.2-0.7,0.6-0.7l3.2,0       c0.3,0,0.6,0.3,0.6,0.6l0.1,13C37.4,232.2,37.2,232.5,36.8,232.5z M45.3,232.5l-1.4,0c-0.3,0-0.6-0.2-0.6-0.5l-1.9-13       c-0.1-0.4,0.2-0.7,0.6-0.7l3.2,0c0.3,0,0.6,0.3,0.6,0.6l0.1,13C45.9,232.2,45.6,232.5,45.3,232.5z M52.9,232.5l-2.1,0       c-0.3,0-0.5-0.2-0.5-0.5l-0.9-13.3c0-0.3,0.2-0.5,0.5-0.5l2.9,0c0.3,0,0.5,0.2,0.5,0.5l0.1,13.3       C53.4,232.2,53.1,232.5,52.9,232.5z M60,231.9c0,0.3-0.2,0.5-0.5,0.5l-2.4,0c-0.3,0-0.5-0.2-0.5-0.5l0-13.2       c0-0.3,0.2-0.5,0.5-0.5l2.4,0c0.3,0,0.5,0.2,0.5,0.5L60,231.9z M67.6,232c0,0.3-0.2,0.5-0.5,0.5l-2.1,0c-0.3,0-0.5-0.2-0.5-0.5       l0-13.3c0-0.3,0.2-0.5,0.5-0.5l2.9,0c0.3,0,0.5,0.2,0.5,0.5L67.6,232z M76.5,218.9l-1.9,13c0,0.3-0.3,0.5-0.6,0.5l-1.4,0       c-0.3,0-0.6-0.3-0.6-0.6l0.1-13c0-0.3,0.3-0.6,0.6-0.6l3.2,0C76.2,218.2,76.5,218.5,76.5,218.9z M84.9,218.9l-1.9,13       c0,0.3-0.3,0.5-0.6,0.5l-1.4,0c-0.3,0-0.6-0.3-0.6-0.6l0.1-13c0-0.3,0.3-0.6,0.6-0.6l3.2,0C84.7,218.2,85,218.5,84.9,218.9z" class="color5269b0 svgShape"></path>
      <path fill="#333482" d="M82.6,208.3l-22.4-31.2c-0.3-0.4-0.8-0.6-1.3-0.6c0,0,0,0,0,0c0,0,0,0,0,0c-0.5,0-1,0.2-1.3,0.6      l-22.4,31.2c-0.5,0.7-0.3,1.7,0.4,2.2l0,0c0.7,0.5,1.7,0.3,2.2-0.4l21.1-29.4l21.2,29.4c0.5,0.7,1.5,0.9,2.2,0.4      C83,210,83.1,209,82.6,208.3z" class="color303e61 svgShape"></path>
    </g>
    <path fill="#def3a2" d="M85.2,181.7c-5.3-0.9-10.3-1.8-14.2-2.5c-4.2-1.1-8.8-2-9.8-1.9c0,0-0.5,0-0.7,0.1l-5.5,2.7    c-0.4,0.2-0.7,0.7-0.6,1.1c0.2,0.7,0.8,1,1.4,0.7l2.2-1.1c-0.9,1.3-1.7,2.5-1.8,2.8c-0.5,1.1,0.3,1.6,0.6,1.4    c0.8-0.5,3.8-4.5,3.8-4.5s-2.1,4.2-2.4,5c-0.3,0.8,0.8,1.3,1.4,1c0.6-0.4,2.8-3.9,2.8-3.9s-1.6,3.7-0.8,3.9    c1.2,0.3,2.3-2.4,2.3-2.4c1.6,1.5,3.6,2.5,5.7,3.1c0.3,0.1,0.6,0.3,1,0.5c0.3,0.3,0.5,0.5,0.6,0.5c0,0,5.8,3.6,13.2,8.2    C84.8,191.4,85.3,186.5,85.2,181.7z" class="colorf3aca2 svgShape"></path>
  </g>
</svg>
